<?xml version="1.0" encoding="UTF-8"?>
<svg xmlns="http://www.w3.org/2000/svg" width="286" height="267" viewBox="0 0 286 267">
  <path d="M 151.00 246.50 L 133.00 246.50 L 132.00 245.50 L 125.00 245.50 L 124.00 244.50 L 119.00 244.50 L 118.00 243.50 L 114.00 243.50 L 113.00 242.50 L 109.00 242.50 L 105.00 240.50 L 102.00 240.50 L 101.00 239.50 L 93.00 237.50 L 90.00 235.50 L 88.00 235.50 L 80.00 231.50 L 59.00 217.50 L 42.50 201.00 L 34.50 190.00 L 28.50 179.00 L 28.50 177.00 L 25.50 172.00 L 24.50 167.00 L 23.50 166.00 L 23.50 163.00 L 21.50 158.00 L 21.50 154.00 L 20.50 153.00 L 20.50 147.00 L 19.50 146.00 L 19.50 127.00 L 20.50 126.00 L 20.50 120.00 L 21.50 119.00 L 21.50 115.00 L 24.50 107.00 L 24.50 104.00 L 26.50 101.00 L 26.50 99.00 L 28.50 96.00 L 28.50 94.00 L 30.50 90.00 L 44.50 70.00 L 62.00 53.50 L 75.00 44.50 L 96.00 34.50 L 101.00 33.50 L 105.00 31.50 L 116.00 29.50 L 117.00 28.50 L 121.00 28.50 L 122.00 27.50 L 142.00 25.50 L 143.50 28.00 L 142.50 29.00 L 142.50 32.00 L 139.00 41.50 L 124.00 42.50 L 123.00 43.50 L 119.00 43.50 L 118.00 44.50 L 111.00 45.50 L 110.00 46.50 L 104.00 47.50 L 101.00 49.50 L 99.00 49.50 L 85.00 56.50 L 73.00 64.50 L 69.00 68.50 L 68.00 68.50 L 53.50 84.00 L 47.50 93.00 L 42.50 103.00 L 42.50 105.00 L 40.50 108.00 L 40.50 111.00 L 38.50 115.00 L 38.50 119.00 L 37.50 120.00 L 37.50 126.00 L 36.50 127.00 L 36.50 141.00 L 37.50 142.00 L 37.50 148.00 L 38.50 149.00 L 38.50 153.00 L 39.50 154.00 L 39.50 157.00 L 40.50 158.00 L 41.50 163.00 L 42.00 163.50 L 47.00 159.50 L 55.00 155.50 L 61.00 155.50 L 62.00 156.50 L 73.00 159.50 L 76.00 161.50 L 81.00 162.50 L 82.00 163.50 L 85.00 163.50 L 89.50 154.00 L 92.50 150.00 L 102.00 141.50 L 104.00 141.50 L 146.50 163.00 L 145.50 167.00 L 137.00 178.50 L 135.00 178.50 L 113.00 167.50 L 111.00 167.50 L 108.50 171.00 L 108.50 176.00 L 110.50 180.00 L 120.00 188.50 L 124.00 189.50 L 127.00 191.50 L 135.00 192.50 L 136.00 193.50 L 153.00 193.50 L 154.00 192.50 L 158.00 192.50 L 159.00 191.50 L 165.00 190.50 L 175.00 185.50 L 180.50 180.00 L 182.50 176.00 L 182.50 169.00 L 180.50 165.00 L 174.00 159.50 L 132.00 138.50 L 130.00 136.50 L 117.00 130.50 L 115.00 128.50 L 104.00 123.50 L 98.00 119.50 L 94.50 116.00 L 88.50 107.00 L 88.50 105.00 L 87.50 104.00 L 87.50 92.00 L 88.50 91.00 L 90.50 83.00 L 95.00 75.50 L 199.00 75.50 L 200.00 76.50 L 205.00 76.50 L 205.50 78.00 L 203.50 81.00 L 200.50 91.00 L 195.00 100.50 L 117.50 101.00 L 120.00 103.50 L 123.00 104.50 L 130.00 109.50 L 191.00 140.50 L 203.50 152.00 L 204.50 155.00 L 206.50 157.00 L 207.50 163.00 L 208.50 164.00 L 208.50 174.00 L 207.50 175.00 L 207.50 178.00 L 204.50 185.00 L 199.50 192.00 L 191.00 199.50 L 178.00 206.50 L 170.00 208.50 L 166.00 210.50 L 156.00 211.50 L 155.00 212.50 L 134.00 212.50 L 133.00 211.50 L 128.00 211.50 L 127.00 210.50 L 119.00 209.50 L 103.00 202.50 L 97.00 198.50 L 88.50 190.00 L 85.00 184.50 L 81.00 182.50 L 76.00 181.50 L 73.00 179.50 L 68.00 178.50 L 64.00 176.50 L 58.00 176.50 L 54.00 178.50 L 51.50 181.00 L 55.50 188.00 L 63.50 197.00 L 73.00 205.50 L 77.00 207.50 L 83.00 212.50 L 88.00 214.50 L 92.00 217.50 L 94.00 217.50 L 102.00 221.50 L 104.00 221.50 L 108.00 223.50 L 111.00 223.50 L 112.00 224.50 L 115.00 224.50 L 116.00 225.50 L 119.00 225.50 L 120.00 226.50 L 134.00 227.50 L 135.00 228.50 L 152.00 228.50 L 153.00 227.50 L 160.00 227.50 L 161.00 226.50 L 165.00 226.50 L 166.00 225.50 L 174.00 224.50 L 175.00 223.50 L 186.00 220.50 L 205.00 210.50 L 213.00 204.50 L 227.50 190.00 L 233.50 182.00 L 241.50 167.00 L 241.50 165.00 L 244.50 158.00 L 244.50 155.00 L 245.50 154.00 L 246.50 142.00 L 247.50 141.00 L 247.50 128.00 L 246.50 127.00 L 246.50 121.00 L 245.50 120.00 L 245.50 116.00 L 244.50 115.00 L 244.50 112.00 L 242.50 108.00 L 242.50 106.00 L 237.50 94.00 L 226.50 78.00 L 215.00 66.50 L 201.00 56.50 L 189.00 50.50 L 187.00 50.50 L 184.00 48.50 L 170.00 49.50 L 165.00 47.50 L 160.50 43.00 L 159.50 41.00 L 159.50 36.00 L 163.50 28.00 L 165.50 26.00 L 165.50 24.00 L 163.50 20.00 L 167.00 19.50 L 181.00 26.50 L 186.00 33.50 L 199.00 38.50 L 209.00 43.50 L 218.00 49.50 L 226.00 55.50 L 241.50 71.00 L 252.50 87.00 L 256.50 95.00 L 256.50 97.00 L 259.50 102.00 L 260.50 107.00 L 261.50 108.00 L 261.50 111.00 L 262.50 112.00 L 263.50 121.00 L 264.50 122.00 L 265.50 140.00 L 264.50 141.00 L 264.50 150.00 L 263.50 151.00 L 263.50 155.00 L 262.50 156.00 L 262.50 160.00 L 261.50 161.00 L 261.50 164.00 L 260.50 165.00 L 257.50 176.00 L 246.50 195.00 L 231.00 212.50 L 230.00 212.50 L 224.00 218.50 L 211.00 227.50 L 191.00 237.50 L 189.00 237.50 L 179.00 241.50 L 172.00 242.50 L 171.00 243.50 L 161.00 244.50 L 160.00 245.50 L 152.00 245.50 L 151.00 246.50 Z" fill="#FFFFFF" fill-rule="evenodd" clip-rule="evenodd"/>
</svg>
